<mxfile host="app.diagrams.net" modified="2024-03-30T19:13:13.023Z" agent="Mozilla/5.0 (Windows NT 10.0; Win64; x64; rv:124.0) Gecko/20100101 Firefox/124.0" etag="KIm_BJLOw5zUvelKXPSF" version="24.2.1" type="github">
  <diagram name="Page-1" id="gsq5IFfQm1prDfEgMtaN">
    <mxGraphModel dx="2930" dy="1117" grid="1" gridSize="10" guides="1" tooltips="1" connect="1" arrows="1" fold="1" page="1" pageScale="1" pageWidth="850" pageHeight="1100" math="0" shadow="0">
      <root>
        <mxCell id="0" />
        <mxCell id="1" parent="0" />
        <mxCell id="xs_aavqGix5To3ERfGKB-3" style="edgeStyle=orthogonalEdgeStyle;rounded=0;orthogonalLoop=1;jettySize=auto;html=1;entryX=0.5;entryY=0;entryDx=0;entryDy=0;endArrow=none;endFill=0;" edge="1" parent="1" source="xs_aavqGix5To3ERfGKB-6" target="xs_aavqGix5To3ERfGKB-4">
          <mxGeometry relative="1" as="geometry">
            <mxPoint x="210" y="250" as="targetPoint" />
            <mxPoint x="300" y="165" as="sourcePoint" />
            <Array as="points">
              <mxPoint x="320" y="50" />
              <mxPoint x="-200" y="50" />
            </Array>
          </mxGeometry>
        </mxCell>
        <mxCell id="xs_aavqGix5To3ERfGKB-1" value="ThesisMan" style="swimlane;whiteSpace=wrap;html=1;startSize=70;" vertex="1" parent="1">
          <mxGeometry x="330" y="130" width="140" height="70" as="geometry" />
        </mxCell>
        <mxCell id="xs_aavqGix5To3ERfGKB-4" value="ThemeCatalog" style="swimlane;whiteSpace=wrap;html=1;startSize=70;" vertex="1" parent="1">
          <mxGeometry x="-270" y="230" width="140" height="70" as="geometry" />
        </mxCell>
        <mxCell id="xs_aavqGix5To3ERfGKB-6" value="" style="rhombus;whiteSpace=wrap;html=1;fillColor=default;" vertex="1" parent="1">
          <mxGeometry x="310" y="155" width="20" height="20" as="geometry" />
        </mxCell>
        <mxCell id="xs_aavqGix5To3ERfGKB-38" style="edgeStyle=orthogonalEdgeStyle;rounded=0;orthogonalLoop=1;jettySize=auto;html=1;endArrow=none;endFill=0;" edge="1" parent="1" source="xs_aavqGix5To3ERfGKB-8" target="xs_aavqGix5To3ERfGKB-39">
          <mxGeometry relative="1" as="geometry">
            <mxPoint x="410" y="519.9999999999998" as="targetPoint" />
          </mxGeometry>
        </mxCell>
        <mxCell id="xs_aavqGix5To3ERfGKB-8" value="StudentsCathalog" style="swimlane;whiteSpace=wrap;html=1;startSize=70;" vertex="1" parent="1">
          <mxGeometry x="340" y="360" width="140" height="70" as="geometry" />
        </mxCell>
        <mxCell id="xs_aavqGix5To3ERfGKB-10" style="edgeStyle=orthogonalEdgeStyle;rounded=0;orthogonalLoop=1;jettySize=auto;html=1;entryX=0.429;entryY=0.011;entryDx=0;entryDy=0;entryPerimeter=0;endArrow=none;endFill=0;" edge="1" parent="1" source="xs_aavqGix5To3ERfGKB-9" target="xs_aavqGix5To3ERfGKB-8">
          <mxGeometry relative="1" as="geometry" />
        </mxCell>
        <mxCell id="xs_aavqGix5To3ERfGKB-13" style="edgeStyle=orthogonalEdgeStyle;rounded=0;orthogonalLoop=1;jettySize=auto;html=1;entryX=0;entryY=0.5;entryDx=0;entryDy=0;endArrow=none;endFill=0;" edge="1" parent="1" source="xs_aavqGix5To3ERfGKB-11" target="xs_aavqGix5To3ERfGKB-12">
          <mxGeometry relative="1" as="geometry" />
        </mxCell>
        <mxCell id="xs_aavqGix5To3ERfGKB-11" value="" style="rhombus;whiteSpace=wrap;html=1;fillColor=default;" vertex="1" parent="1">
          <mxGeometry x="470" y="155" width="20" height="20" as="geometry" />
        </mxCell>
        <mxCell id="xs_aavqGix5To3ERfGKB-73" style="edgeStyle=orthogonalEdgeStyle;rounded=0;orthogonalLoop=1;jettySize=auto;html=1;entryX=0.5;entryY=0;entryDx=0;entryDy=0;" edge="1" parent="1" source="xs_aavqGix5To3ERfGKB-12" target="xs_aavqGix5To3ERfGKB-74">
          <mxGeometry relative="1" as="geometry">
            <mxPoint x="1070" y="539.9999999999998" as="targetPoint" />
          </mxGeometry>
        </mxCell>
        <mxCell id="xs_aavqGix5To3ERfGKB-12" value="ClassroomCatalog" style="swimlane;whiteSpace=wrap;html=1;startSize=70;" vertex="1" parent="1">
          <mxGeometry x="1000" y="130" width="140" height="70" as="geometry" />
        </mxCell>
        <mxCell id="xs_aavqGix5To3ERfGKB-20" style="edgeStyle=orthogonalEdgeStyle;rounded=0;orthogonalLoop=1;jettySize=auto;html=1;endArrow=none;endFill=0;startArrow=none;startFill=0;" edge="1" parent="1" source="xs_aavqGix5To3ERfGKB-17" target="xs_aavqGix5To3ERfGKB-1">
          <mxGeometry relative="1" as="geometry" />
        </mxCell>
        <mxCell id="xs_aavqGix5To3ERfGKB-63" style="edgeStyle=orthogonalEdgeStyle;rounded=0;orthogonalLoop=1;jettySize=auto;html=1;" edge="1" parent="1" source="xs_aavqGix5To3ERfGKB-64" target="xs_aavqGix5To3ERfGKB-60">
          <mxGeometry relative="1" as="geometry">
            <Array as="points">
              <mxPoint x="40" y="310" />
              <mxPoint x="40" y="310" />
            </Array>
          </mxGeometry>
        </mxCell>
        <mxCell id="xs_aavqGix5To3ERfGKB-17" value="CousellorsCatalog" style="swimlane;whiteSpace=wrap;html=1;startSize=70;" vertex="1" parent="1">
          <mxGeometry x="-30" y="130" width="140" height="70" as="geometry" />
        </mxCell>
        <mxCell id="xs_aavqGix5To3ERfGKB-9" value="" style="rhombus;whiteSpace=wrap;html=1;fillColor=default;" vertex="1" parent="1">
          <mxGeometry x="390" y="200" width="20" height="20" as="geometry" />
        </mxCell>
        <mxCell id="xs_aavqGix5To3ERfGKB-27" value="Theme" style="swimlane;whiteSpace=wrap;html=1;" vertex="1" parent="1">
          <mxGeometry x="-490" y="680" width="200" height="170" as="geometry" />
        </mxCell>
        <mxCell id="xs_aavqGix5To3ERfGKB-28" value="Title" style="text;html=1;align=center;verticalAlign=middle;resizable=0;points=[];autosize=1;strokeColor=none;fillColor=none;" vertex="1" parent="xs_aavqGix5To3ERfGKB-27">
          <mxGeometry y="28" width="50" height="30" as="geometry" />
        </mxCell>
        <mxCell id="xs_aavqGix5To3ERfGKB-29" value="Description" style="text;html=1;align=center;verticalAlign=middle;resizable=0;points=[];autosize=1;strokeColor=none;fillColor=none;" vertex="1" parent="xs_aavqGix5To3ERfGKB-27">
          <mxGeometry y="50" width="90" height="30" as="geometry" />
        </mxCell>
        <mxCell id="xs_aavqGix5To3ERfGKB-30" value="CompatibleMasters" style="text;html=1;align=center;verticalAlign=middle;resizable=0;points=[];autosize=1;strokeColor=none;fillColor=none;" vertex="1" parent="xs_aavqGix5To3ERfGKB-27">
          <mxGeometry y="80" width="130" height="30" as="geometry" />
        </mxCell>
        <mxCell id="xs_aavqGix5To3ERfGKB-31" value="Pay" style="text;html=1;align=center;verticalAlign=middle;resizable=0;points=[];autosize=1;strokeColor=none;fillColor=none;" vertex="1" parent="xs_aavqGix5To3ERfGKB-27">
          <mxGeometry y="105" width="40" height="30" as="geometry" />
        </mxCell>
        <mxCell id="xs_aavqGix5To3ERfGKB-36" value="PK_Theme" style="text;html=1;align=center;verticalAlign=middle;resizable=0;points=[];autosize=1;strokeColor=none;fillColor=none;" vertex="1" parent="xs_aavqGix5To3ERfGKB-27">
          <mxGeometry x="-4" y="128" width="90" height="30" as="geometry" />
        </mxCell>
        <mxCell id="xs_aavqGix5To3ERfGKB-33" style="edgeStyle=orthogonalEdgeStyle;rounded=0;orthogonalLoop=1;jettySize=auto;html=1;entryX=0.404;entryY=0;entryDx=0;entryDy=0;entryPerimeter=0;endArrow=none;endFill=0;exitX=0;exitY=0.5;exitDx=0;exitDy=0;" edge="1" parent="1" source="xs_aavqGix5To3ERfGKB-32" target="xs_aavqGix5To3ERfGKB-27">
          <mxGeometry relative="1" as="geometry" />
        </mxCell>
        <mxCell id="xs_aavqGix5To3ERfGKB-32" value="" style="rhombus;whiteSpace=wrap;html=1;fillColor=default;" vertex="1" parent="1">
          <mxGeometry x="-290" y="255" width="20" height="20" as="geometry" />
        </mxCell>
        <mxCell id="xs_aavqGix5To3ERfGKB-48" style="edgeStyle=orthogonalEdgeStyle;rounded=0;orthogonalLoop=1;jettySize=auto;html=1;entryX=0.5;entryY=1;entryDx=0;entryDy=0;endArrow=none;endFill=0;" edge="1" parent="1" source="xs_aavqGix5To3ERfGKB-39" target="xs_aavqGix5To3ERfGKB-27">
          <mxGeometry relative="1" as="geometry" />
        </mxCell>
        <mxCell id="xs_aavqGix5To3ERfGKB-51" value="ChosenBy" style="edgeLabel;html=1;align=center;verticalAlign=middle;resizable=0;points=[];" vertex="1" connectable="0" parent="xs_aavqGix5To3ERfGKB-48">
          <mxGeometry x="-0.0407" y="3" relative="1" as="geometry">
            <mxPoint as="offset" />
          </mxGeometry>
        </mxCell>
        <mxCell id="xs_aavqGix5To3ERfGKB-141" style="edgeStyle=orthogonalEdgeStyle;rounded=0;orthogonalLoop=1;jettySize=auto;html=1;endArrow=none;endFill=0;" edge="1" parent="1">
          <mxGeometry relative="1" as="geometry">
            <mxPoint x="-230" y="18" as="targetPoint" />
            <mxPoint x="540" y="815.0000000000002" as="sourcePoint" />
            <Array as="points">
              <mxPoint x="560" y="815" />
              <mxPoint x="570" y="816" />
              <mxPoint x="570" y="18" />
            </Array>
          </mxGeometry>
        </mxCell>
        <mxCell id="xs_aavqGix5To3ERfGKB-39" value="Student" style="swimlane;whiteSpace=wrap;html=1;" vertex="1" parent="1">
          <mxGeometry x="350" y="750" width="200" height="130" as="geometry" />
        </mxCell>
        <mxCell id="xs_aavqGix5To3ERfGKB-40" value="Student_Id" style="text;html=1;align=center;verticalAlign=middle;resizable=0;points=[];autosize=1;strokeColor=none;fillColor=none;" vertex="1" parent="xs_aavqGix5To3ERfGKB-39">
          <mxGeometry y="30.000000000000227" width="80" height="30" as="geometry" />
        </mxCell>
        <mxCell id="xs_aavqGix5To3ERfGKB-41" value="PK_ID" style="text;html=1;align=center;verticalAlign=middle;resizable=0;points=[];autosize=1;strokeColor=none;fillColor=none;" vertex="1" parent="xs_aavqGix5To3ERfGKB-39">
          <mxGeometry y="60.00000000000023" width="60" height="30" as="geometry" />
        </mxCell>
        <mxCell id="xs_aavqGix5To3ERfGKB-129" value="Average" style="text;html=1;align=center;verticalAlign=middle;resizable=0;points=[];autosize=1;strokeColor=none;fillColor=none;" vertex="1" parent="xs_aavqGix5To3ERfGKB-39">
          <mxGeometry y="88" width="70" height="30" as="geometry" />
        </mxCell>
        <mxCell id="xs_aavqGix5To3ERfGKB-45" value="" style="rhombus;whiteSpace=wrap;html=1;fillColor=default;" vertex="1" parent="1">
          <mxGeometry x="400" y="430" width="20" height="20" as="geometry" />
        </mxCell>
        <mxCell id="xs_aavqGix5To3ERfGKB-49" value="0..5" style="text;html=1;align=center;verticalAlign=middle;resizable=0;points=[];autosize=1;strokeColor=none;fillColor=none;" vertex="1" parent="1">
          <mxGeometry x="-400" y="870" width="40" height="30" as="geometry" />
        </mxCell>
        <mxCell id="xs_aavqGix5To3ERfGKB-50" value="1" style="text;html=1;align=center;verticalAlign=middle;resizable=0;points=[];autosize=1;strokeColor=none;fillColor=none;" vertex="1" parent="1">
          <mxGeometry x="320" y="790" width="30" height="30" as="geometry" />
        </mxCell>
        <mxCell id="xs_aavqGix5To3ERfGKB-91" style="edgeStyle=orthogonalEdgeStyle;rounded=0;orthogonalLoop=1;jettySize=auto;html=1;entryX=0;entryY=0.5;entryDx=0;entryDy=0;endArrow=none;endFill=0;" edge="1" parent="1" source="xs_aavqGix5To3ERfGKB-53" target="xs_aavqGix5To3ERfGKB-88">
          <mxGeometry relative="1" as="geometry" />
        </mxCell>
        <mxCell id="xs_aavqGix5To3ERfGKB-53" value="Thesis" style="swimlane;whiteSpace=wrap;html=1;startSize=70;" vertex="1" parent="1">
          <mxGeometry x="229.95" y="940" width="140" height="70" as="geometry" />
        </mxCell>
        <mxCell id="xs_aavqGix5To3ERfGKB-67" style="edgeStyle=orthogonalEdgeStyle;rounded=0;orthogonalLoop=1;jettySize=auto;html=1;entryX=0.5;entryY=1;entryDx=0;entryDy=0;endArrow=block;endFill=0;" edge="1" parent="1" source="xs_aavqGix5To3ERfGKB-54" target="xs_aavqGix5To3ERfGKB-53">
          <mxGeometry relative="1" as="geometry">
            <mxPoint x="160.0026315789475" y="1100" as="sourcePoint" />
          </mxGeometry>
        </mxCell>
        <mxCell id="xs_aavqGix5To3ERfGKB-54" value="Dissertation" style="swimlane;whiteSpace=wrap;html=1;startSize=70;" vertex="1" parent="1">
          <mxGeometry x="10" y="1080" width="140" height="70" as="geometry" />
        </mxCell>
        <mxCell id="xs_aavqGix5To3ERfGKB-68" style="edgeStyle=orthogonalEdgeStyle;rounded=0;orthogonalLoop=1;jettySize=auto;html=1;entryX=0.5;entryY=1;entryDx=0;entryDy=0;endArrow=block;endFill=0;exitX=-0.021;exitY=0.626;exitDx=0;exitDy=0;exitPerimeter=0;" edge="1" parent="1" source="xs_aavqGix5To3ERfGKB-55" target="xs_aavqGix5To3ERfGKB-53">
          <mxGeometry relative="1" as="geometry">
            <mxPoint x="440.0026315789475" y="1110" as="sourcePoint" />
          </mxGeometry>
        </mxCell>
        <mxCell id="xs_aavqGix5To3ERfGKB-55" value="Project" style="swimlane;whiteSpace=wrap;html=1;startSize=70;" vertex="1" parent="1">
          <mxGeometry x="470" y="1080" width="140" height="70" as="geometry" />
        </mxCell>
        <mxCell id="xs_aavqGix5To3ERfGKB-115" style="edgeStyle=orthogonalEdgeStyle;rounded=0;orthogonalLoop=1;jettySize=auto;html=1;endArrow=none;endFill=0;startArrow=block;startFill=0;" edge="1" parent="1" source="xs_aavqGix5To3ERfGKB-60" target="xs_aavqGix5To3ERfGKB-112">
          <mxGeometry relative="1" as="geometry" />
        </mxCell>
        <mxCell id="xs_aavqGix5To3ERfGKB-116" style="edgeStyle=orthogonalEdgeStyle;rounded=0;orthogonalLoop=1;jettySize=auto;html=1;endArrow=none;endFill=0;startArrow=block;startFill=0;" edge="1" parent="1" source="xs_aavqGix5To3ERfGKB-60" target="xs_aavqGix5To3ERfGKB-114">
          <mxGeometry relative="1" as="geometry">
            <Array as="points">
              <mxPoint x="260" y="428" />
            </Array>
          </mxGeometry>
        </mxCell>
        <mxCell id="xs_aavqGix5To3ERfGKB-60" value="Cousellors" style="swimlane;whiteSpace=wrap;html=1;" vertex="1" parent="1">
          <mxGeometry x="-40" y="290" width="200" height="100" as="geometry" />
        </mxCell>
        <mxCell id="xs_aavqGix5To3ERfGKB-117" value="id" style="text;html=1;align=center;verticalAlign=middle;resizable=0;points=[];autosize=1;strokeColor=none;fillColor=none;" vertex="1" parent="xs_aavqGix5To3ERfGKB-60">
          <mxGeometry y="22" width="30" height="30" as="geometry" />
        </mxCell>
        <mxCell id="xs_aavqGix5To3ERfGKB-64" value="" style="rhombus;whiteSpace=wrap;html=1;fillColor=default;" vertex="1" parent="1">
          <mxGeometry x="30" y="200" width="20" height="20" as="geometry" />
        </mxCell>
        <mxCell id="xs_aavqGix5To3ERfGKB-74" value="Classroom" style="swimlane;whiteSpace=wrap;html=1;" vertex="1" parent="1">
          <mxGeometry x="970" y="360" width="200" height="100" as="geometry" />
        </mxCell>
        <mxCell id="xs_aavqGix5To3ERfGKB-85" value="PK_id" style="text;html=1;align=center;verticalAlign=middle;resizable=0;points=[];autosize=1;strokeColor=none;fillColor=none;" vertex="1" parent="xs_aavqGix5To3ERfGKB-74">
          <mxGeometry y="25" width="60" height="30" as="geometry" />
        </mxCell>
        <mxCell id="xs_aavqGix5To3ERfGKB-86" value="RoomNumber" style="text;html=1;align=center;verticalAlign=middle;resizable=0;points=[];autosize=1;strokeColor=none;fillColor=none;" vertex="1" parent="xs_aavqGix5To3ERfGKB-74">
          <mxGeometry y="55" width="100" height="30" as="geometry" />
        </mxCell>
        <mxCell id="xs_aavqGix5To3ERfGKB-80" value="CounsellorDiscussion" style="swimlane;whiteSpace=wrap;html=1;startSize=23;" vertex="1" parent="1">
          <mxGeometry x="600" y="510" width="200" height="60" as="geometry" />
        </mxCell>
        <mxCell id="xs_aavqGix5To3ERfGKB-81" value="isInternalCounsellor" style="text;html=1;align=center;verticalAlign=middle;resizable=0;points=[];autosize=1;strokeColor=none;fillColor=none;" vertex="1" parent="xs_aavqGix5To3ERfGKB-80">
          <mxGeometry x="-10" y="20" width="140" height="30" as="geometry" />
        </mxCell>
        <mxCell id="xs_aavqGix5To3ERfGKB-134" style="edgeStyle=orthogonalEdgeStyle;rounded=0;orthogonalLoop=1;jettySize=auto;html=1;entryX=1;entryY=0.5;entryDx=0;entryDy=0;exitX=0.5;exitY=0;exitDx=0;exitDy=0;" edge="1" parent="1" source="xs_aavqGix5To3ERfGKB-135" target="xs_aavqGix5To3ERfGKB-80">
          <mxGeometry relative="1" as="geometry">
            <mxPoint x="920" y="530" as="targetPoint" />
            <Array as="points" />
          </mxGeometry>
        </mxCell>
        <mxCell id="xs_aavqGix5To3ERfGKB-88" value="Discussion" style="swimlane;whiteSpace=wrap;html=1;" vertex="1" parent="1">
          <mxGeometry x="820" y="730" width="200" height="140" as="geometry" />
        </mxCell>
        <mxCell id="xs_aavqGix5To3ERfGKB-89" value="PK_id" style="text;html=1;align=center;verticalAlign=middle;resizable=0;points=[];autosize=1;strokeColor=none;fillColor=none;" vertex="1" parent="xs_aavqGix5To3ERfGKB-88">
          <mxGeometry y="20" width="60" height="30" as="geometry" />
        </mxCell>
        <mxCell id="xs_aavqGix5To3ERfGKB-90" value="isFinal" style="text;html=1;align=center;verticalAlign=middle;resizable=0;points=[];autosize=1;strokeColor=none;fillColor=none;" vertex="1" parent="xs_aavqGix5To3ERfGKB-88">
          <mxGeometry y="40" width="60" height="30" as="geometry" />
        </mxCell>
        <mxCell id="xs_aavqGix5To3ERfGKB-138" value="grade" style="text;html=1;align=center;verticalAlign=middle;resizable=0;points=[];autosize=1;strokeColor=none;fillColor=none;" vertex="1" parent="xs_aavqGix5To3ERfGKB-88">
          <mxGeometry y="55" width="60" height="30" as="geometry" />
        </mxCell>
        <mxCell id="xs_aavqGix5To3ERfGKB-139" value="finalGrade" style="text;html=1;align=center;verticalAlign=middle;resizable=0;points=[];autosize=1;strokeColor=none;fillColor=none;" vertex="1" parent="xs_aavqGix5To3ERfGKB-88">
          <mxGeometry y="70" width="80" height="30" as="geometry" />
        </mxCell>
        <mxCell id="xs_aavqGix5To3ERfGKB-95" value="" style="rhombus;whiteSpace=wrap;html=1;fillColor=default;" vertex="1" parent="1">
          <mxGeometry x="369.95" y="965" width="20" height="20" as="geometry" />
        </mxCell>
        <mxCell id="xs_aavqGix5To3ERfGKB-97" style="edgeStyle=orthogonalEdgeStyle;rounded=0;orthogonalLoop=1;jettySize=auto;html=1;entryX=0.533;entryY=0.004;entryDx=0;entryDy=0;entryPerimeter=0;endArrow=none;endFill=0;" edge="1" parent="1" source="xs_aavqGix5To3ERfGKB-39" target="xs_aavqGix5To3ERfGKB-53">
          <mxGeometry relative="1" as="geometry" />
        </mxCell>
        <mxCell id="xs_aavqGix5To3ERfGKB-105" style="edgeStyle=orthogonalEdgeStyle;rounded=0;orthogonalLoop=1;jettySize=auto;html=1;entryX=0.5;entryY=1;entryDx=0;entryDy=0;endArrow=block;endFill=0;" edge="1" parent="1" source="xs_aavqGix5To3ERfGKB-98" target="xs_aavqGix5To3ERfGKB-88">
          <mxGeometry relative="1" as="geometry" />
        </mxCell>
        <mxCell id="xs_aavqGix5To3ERfGKB-98" value="Online" style="swimlane;whiteSpace=wrap;html=1;" vertex="1" parent="1">
          <mxGeometry x="700" y="965" width="200" height="65" as="geometry" />
        </mxCell>
        <mxCell id="xs_aavqGix5To3ERfGKB-102" style="edgeStyle=orthogonalEdgeStyle;rounded=0;orthogonalLoop=1;jettySize=auto;html=1;entryX=0.5;entryY=1;entryDx=0;entryDy=0;endArrow=none;endFill=0;" edge="1" parent="1" source="xs_aavqGix5To3ERfGKB-107" target="xs_aavqGix5To3ERfGKB-100">
          <mxGeometry relative="1" as="geometry">
            <mxPoint x="1340" y="760" as="targetPoint" />
          </mxGeometry>
        </mxCell>
        <mxCell id="xs_aavqGix5To3ERfGKB-106" style="edgeStyle=orthogonalEdgeStyle;rounded=0;orthogonalLoop=1;jettySize=auto;html=1;entryX=0.5;entryY=1;entryDx=0;entryDy=0;endArrow=block;endFill=0;" edge="1" parent="1" source="xs_aavqGix5To3ERfGKB-99" target="xs_aavqGix5To3ERfGKB-88">
          <mxGeometry relative="1" as="geometry" />
        </mxCell>
        <mxCell id="xs_aavqGix5To3ERfGKB-99" value="InPerson" style="swimlane;whiteSpace=wrap;html=1;" vertex="1" parent="1">
          <mxGeometry x="960" y="955" width="200" height="85" as="geometry" />
        </mxCell>
        <mxCell id="xs_aavqGix5To3ERfGKB-103" style="edgeStyle=orthogonalEdgeStyle;rounded=0;orthogonalLoop=1;jettySize=auto;html=1;entryX=1;entryY=0.5;entryDx=0;entryDy=0;endArrow=none;endFill=0;" edge="1" parent="1" source="xs_aavqGix5To3ERfGKB-100" target="xs_aavqGix5To3ERfGKB-74">
          <mxGeometry relative="1" as="geometry" />
        </mxCell>
        <mxCell id="xs_aavqGix5To3ERfGKB-100" value="DiscussionRoom" style="swimlane;whiteSpace=wrap;html=1;" vertex="1" parent="1">
          <mxGeometry x="1380" y="600" width="200" height="100" as="geometry" />
        </mxCell>
        <mxCell id="xs_aavqGix5To3ERfGKB-101" value="StartTime" style="text;html=1;align=center;verticalAlign=middle;resizable=0;points=[];autosize=1;strokeColor=none;fillColor=none;" vertex="1" parent="xs_aavqGix5To3ERfGKB-100">
          <mxGeometry y="25" width="80" height="30" as="geometry" />
        </mxCell>
        <mxCell id="xs_aavqGix5To3ERfGKB-104" value="EndTime" style="text;html=1;align=center;verticalAlign=middle;resizable=0;points=[];autosize=1;strokeColor=none;fillColor=none;" vertex="1" parent="xs_aavqGix5To3ERfGKB-100">
          <mxGeometry y="60" width="70" height="30" as="geometry" />
        </mxCell>
        <mxCell id="xs_aavqGix5To3ERfGKB-107" value="" style="rhombus;whiteSpace=wrap;html=1;fillColor=default;" vertex="1" parent="1">
          <mxGeometry x="1160" y="987.5" width="20" height="20" as="geometry" />
        </mxCell>
        <mxCell id="xs_aavqGix5To3ERfGKB-119" style="edgeStyle=orthogonalEdgeStyle;rounded=0;orthogonalLoop=1;jettySize=auto;html=1;entryX=0;entryY=0.5;entryDx=0;entryDy=0;exitX=1;exitY=0.5;exitDx=0;exitDy=0;endArrow=none;endFill=0;" edge="1" parent="1" source="xs_aavqGix5To3ERfGKB-112" target="xs_aavqGix5To3ERfGKB-53">
          <mxGeometry relative="1" as="geometry" />
        </mxCell>
        <mxCell id="xs_aavqGix5To3ERfGKB-112" value="Faculty" style="swimlane;whiteSpace=wrap;html=1;" vertex="1" parent="1">
          <mxGeometry x="-180" y="550" width="200" height="80" as="geometry" />
        </mxCell>
        <mxCell id="xs_aavqGix5To3ERfGKB-114" value="Enterprise" style="swimlane;whiteSpace=wrap;html=1;" vertex="1" parent="1">
          <mxGeometry x="150" y="630" width="200" height="80" as="geometry" />
        </mxCell>
        <mxCell id="xs_aavqGix5To3ERfGKB-120" style="edgeStyle=orthogonalEdgeStyle;rounded=0;orthogonalLoop=1;jettySize=auto;html=1;entryX=0.629;entryY=-0.028;entryDx=0;entryDy=0;entryPerimeter=0;endArrow=none;endFill=0;" edge="1" parent="1" source="xs_aavqGix5To3ERfGKB-114" target="xs_aavqGix5To3ERfGKB-55">
          <mxGeometry relative="1" as="geometry" />
        </mxCell>
        <mxCell id="xs_aavqGix5To3ERfGKB-122" style="edgeStyle=orthogonalEdgeStyle;rounded=0;orthogonalLoop=1;jettySize=auto;html=1;endArrow=block;endFill=0;" edge="1" parent="1" source="xs_aavqGix5To3ERfGKB-121">
          <mxGeometry relative="1" as="geometry">
            <mxPoint x="-90" y="630" as="targetPoint" />
          </mxGeometry>
        </mxCell>
        <mxCell id="xs_aavqGix5To3ERfGKB-127" style="edgeStyle=orthogonalEdgeStyle;rounded=0;orthogonalLoop=1;jettySize=auto;html=1;entryX=0.25;entryY=1;entryDx=0;entryDy=0;endArrow=none;endFill=0;" edge="1" parent="1" source="xs_aavqGix5To3ERfGKB-121" target="xs_aavqGix5To3ERfGKB-8">
          <mxGeometry relative="1" as="geometry" />
        </mxCell>
        <mxCell id="xs_aavqGix5To3ERfGKB-128" value="administers" style="edgeLabel;html=1;align=center;verticalAlign=middle;resizable=0;points=[];" vertex="1" connectable="0" parent="xs_aavqGix5To3ERfGKB-127">
          <mxGeometry x="-0.8179" y="-2" relative="1" as="geometry">
            <mxPoint as="offset" />
          </mxGeometry>
        </mxCell>
        <mxCell id="xs_aavqGix5To3ERfGKB-121" value="Administrator" style="swimlane;whiteSpace=wrap;html=1;" vertex="1" parent="1">
          <mxGeometry x="-190" y="700" width="200" height="70" as="geometry" />
        </mxCell>
        <mxCell id="xs_aavqGix5To3ERfGKB-125" style="edgeStyle=orthogonalEdgeStyle;rounded=0;orthogonalLoop=1;jettySize=auto;html=1;entryX=0.79;entryY=-0.024;entryDx=0;entryDy=0;entryPerimeter=0;endArrow=none;endFill=0;" edge="1" parent="1" source="xs_aavqGix5To3ERfGKB-60" target="xs_aavqGix5To3ERfGKB-27">
          <mxGeometry relative="1" as="geometry" />
        </mxCell>
        <mxCell id="xs_aavqGix5To3ERfGKB-132" style="edgeStyle=orthogonalEdgeStyle;rounded=0;orthogonalLoop=1;jettySize=auto;html=1;entryX=0.612;entryY=0.028;entryDx=0;entryDy=0;entryPerimeter=0;" edge="1" parent="1" source="xs_aavqGix5To3ERfGKB-60" target="xs_aavqGix5To3ERfGKB-80">
          <mxGeometry relative="1" as="geometry" />
        </mxCell>
        <mxCell id="xs_aavqGix5To3ERfGKB-135" value="" style="rhombus;whiteSpace=wrap;html=1;fillColor=default;" vertex="1" parent="1">
          <mxGeometry x="910" y="713" width="20" height="20" as="geometry" />
        </mxCell>
        <mxCell id="xs_aavqGix5To3ERfGKB-144" value="" style="endArrow=none;html=1;rounded=0;exitX=0.25;exitY=0;exitDx=0;exitDy=0;" edge="1" parent="1" source="xs_aavqGix5To3ERfGKB-4">
          <mxGeometry width="50" height="50" relative="1" as="geometry">
            <mxPoint x="-100" y="130" as="sourcePoint" />
            <mxPoint x="-230" y="20" as="targetPoint" />
          </mxGeometry>
        </mxCell>
      </root>
    </mxGraphModel>
  </diagram>
</mxfile>
